# xmcd
#
# Track frame offsets:
#	150
#	24492
#	48367
#	75180
#	99432
#	123070
#	137682
#	153422
#	171780
#	193532
#
# Disc length: 2838 seconds
#
# Revision: 1
# Processed by: cddbd v1.5.2PL0 Copyright (c) Steve Scherf et al.
# Submitted via: audiograbber 1.83.01
#
DISCID=6c0b140a
DTITLE=Dick Meyers and the Country Cousins - Square Dance Level 2
DYEAR=1900
DGENRE=Country
TTITLE0=Virgina Reel (with Calls)
TTITLE1=Cabaret (with Calls)
TTITLE2=Forward Six and Eight (with Calls)
TTITLE3=Lady Around the Lady (with Calls)
TTITLE4=Spanish Cavalier (with Calls)
TTITLE5=Virgina Reel (Arkansas Traveller)
TTITLE6=Cabaret
TTITLE7=Forward Six and Eight (Tain't Nothin')
TTITLE8=Lady Around the Lady (Eleven More Months)
TTITLE9=Spanish Cavalier
EXTD=
EXTT0=
EXTT1=
EXTT2=
EXTT3=
EXTT4=
EXTT5=
EXTT6=
EXTT7=
EXTT8=
EXTT9=
PLAYORDER=
